<svg width="48" height="144" viewBox="0 0 48 144" fill="none" xmlns="http://www.w3.org/2000/svg">
<g clip-path="url(#clip0_1_7575)">
<path d="M2.34 11.78V19.73C2.34 20.88 3.28 21.82 4.43 21.82H19.57C20.72 21.82 21.66 20.88 21.66 19.73V11.78C21.66 11.22 21.44 10.69 21.04 10.3L13.47 2.77999C12.65 1.96999 11.34 1.96999 10.52 2.77999L2.95 10.3C2.55 10.69 2.33 11.23 2.33 11.78H2.34Z" stroke="#BDC0D2" stroke-width="1.5" stroke-linecap="square" stroke-linejoin="bevel"/>
<path d="M7.61 17.47H16.27" stroke="#BDC0D2" stroke-width="1.5" stroke-linecap="square" stroke-linejoin="bevel"/>
<path opacity="0.1" d="M7.61 21.6199H2.95V8.95993L7.61 5.67993V21.6199Z" fill="#BDC0D2"/>
</g>
<g clip-path="url(#clip1_1_7575)">
<g clip-path="url(#clip2_1_7575)">
<path d="M26.34 11.56V19.51C26.34 20.66 27.28 21.6 28.43 21.6H43.57C44.72 21.6 45.66 20.66 45.66 19.51V11.56C45.66 11 45.44 10.47 45.04 10.08L37.47 2.56001C36.65 1.75001 35.34 1.75001 34.52 2.56001L26.95 10.08C26.55 10.47 26.33 11.01 26.33 11.56H26.34Z" fill="#4252E2" stroke="#4252E2" stroke-miterlimit="10"/>
<path d="M31.61 17.25H40.27" stroke="white" stroke-width="1.5" stroke-linecap="square" stroke-linejoin="bevel"/>
<path opacity="0.1" d="M31.61 21.62H28.42C27.27 21.62 26.34 20.69 26.34 19.54V11.42C26.34 10.93 26.53 10.47 26.88 10.13L31.61 5.45996V21.62Z" fill="#111111"/>
</g>
</g>
<g clip-path="url(#clip3_1_7575)">
<path d="M3.98 26.55H20.02C20.86 26.55 21.55 27.23 21.55 28.08V43.93C21.55 44.77 20.87 45.46 20.02 45.46H7.82C4.85 45.46 2.45 43.05 2.45 40.09V28.08C2.45 27.24 3.13 26.55 3.98 26.55Z" stroke="#BDC0D2" stroke-width="1.5" stroke-linecap="square" stroke-linejoin="bevel"/>
<path d="M2.8 33.3401H21.55" stroke="#BDC0D2" stroke-width="1.5" stroke-linecap="square" stroke-linejoin="bevel"/>
<path d="M2.78 39.63H6.79C7.72 39.63 8.47 40.38 8.47 41.31V45.28" stroke="#BDC0D2" stroke-width="1.5" stroke-linecap="square" stroke-linejoin="bevel"/>
<path d="M12.4 36.2001V39.2401" stroke="#BDC0D2" stroke-width="1.5" stroke-linecap="square" stroke-linejoin="bevel"/>
<path d="M12.4 41.78V41.82" stroke="#BDC0D2" stroke-width="1.5" stroke-linecap="square" stroke-linejoin="bevel"/>
<path opacity="0.1" d="M7.68 26.8201H3.02V39.4801H7.68V26.8201Z" fill="#BDC0D2"/>
</g>
<g clip-path="url(#clip4_1_7575)">
<path d="M27.98 26.55H44.02C44.86 26.55 45.55 27.23 45.55 28.08V43.93C45.55 44.77 44.87 45.46 44.02 45.46H31.82C28.85 45.46 26.45 43.05 26.45 40.09V28.08C26.45 27.24 27.13 26.55 27.98 26.55Z" fill="#4252E2" stroke="#4252E2" stroke-miterlimit="10"/>
<path d="M26.45 33.3401H45.55" stroke="white" stroke-miterlimit="10"/>
<path opacity="0.1" d="M28.05 26.55H31.68V39.37H26.45V28.14C26.45 27.26 27.16 26.55 28.04 26.55H28.05Z" fill="#111111"/>
<path d="M26.43 39.63H30.79C31.72 39.63 32.47 40.38 32.47 41.31V45.45" stroke="white" stroke-miterlimit="10"/>
<path d="M36.4 36.2001V39.2401" stroke="white" stroke-width="1.5" stroke-linecap="square" stroke-linejoin="bevel"/>
<path d="M36.4 41.78V41.82" stroke="white" stroke-width="1.5" stroke-linecap="square" stroke-linejoin="bevel"/>
</g>
<g clip-path="url(#clip5_1_7575)">
<path d="M20.78 50.42H4.65C3.91546 50.42 3.32 51.0155 3.32 51.75V68.23C3.32 68.9646 3.91546 69.56 4.65 69.56H20.78C21.5145 69.56 22.11 68.9646 22.11 68.23V51.75C22.11 51.0155 21.5145 50.42 20.78 50.42Z" stroke="#BDC0D2" stroke-width="1.5" stroke-linecap="square" stroke-linejoin="bevel"/>
<path d="M1.89 54.6101H4.76" stroke="#BDC0D2" stroke-width="1.5" stroke-linecap="square" stroke-linejoin="bevel"/>
<path d="M1.89 58.0801H4.76" stroke="#BDC0D2" stroke-width="1.5" stroke-linecap="square" stroke-linejoin="bevel"/>
<path d="M1.89 61.91H4.76" stroke="#BDC0D2" stroke-width="1.5" stroke-linecap="square" stroke-linejoin="bevel"/>
<path d="M1.89 65.38H4.76" stroke="#BDC0D2" stroke-width="1.5" stroke-linecap="square" stroke-linejoin="bevel"/>
<path d="M18.2 54.8201V57.9601" stroke="#BDC0D2" stroke-width="1.5" stroke-linecap="square" stroke-linejoin="bevel"/>
<path opacity="0.1" d="M8.99986 51.0001H3.99986V69.0001H8.99986V51.0001Z" fill="#BDC0D2"/>
</g>
<g clip-path="url(#clip6_1_7575)">
<path d="M44.7801 50.4299H28.6601C27.9201 50.4299 27.3301 51.0299 27.3301 51.7599V53.3699H30.0201V55.8699H27.3301V56.8399H30.0201V59.3399H27.3301V60.6599H30.0201V63.1599H27.3301V64.1299H30.0201V66.6299H27.3301V68.2399C27.3301 68.9799 27.9301 69.5699 28.6601 69.5699H44.7801C45.5201 69.5699 46.1101 68.9699 46.1101 68.2399V51.7599C46.1101 51.0199 45.5101 50.4299 44.7801 50.4299Z" fill="#4252E2" stroke="#4252E2" stroke-miterlimit="10"/>
<path d="M42.2001 54.8199V57.9699" stroke="white" stroke-width="1.5" stroke-linecap="square" stroke-linejoin="bevel"/>
<mask id="mask0_1_7575" style="mask-type:luminance" maskUnits="userSpaceOnUse" x="27" y="50" width="20" height="20">
<path d="M44.7801 50.4299H28.6601C27.9201 50.4299 27.3301 51.0299 27.3301 51.7599V53.3699H30.0201V55.8699H27.3301V56.8399H30.0201V59.3399H27.3301V60.6599H30.0201V63.1599H27.3301V64.1299H30.0201V66.6299H27.3301V68.2399C27.3301 68.9799 27.9301 69.5699 28.6601 69.5699H44.7801C45.5201 69.5699 46.1101 68.9699 46.1101 68.2399V51.7599C46.1101 51.0199 45.5101 50.4299 44.7801 50.4299Z" fill="white"/>
</mask>
<g mask="url(#mask0_1_7575)">
<path opacity="0.1" d="M32.0501 49.96H26.5601V70.06H32.0501V49.96Z" fill="black"/>
</g>
</g>
<g clip-path="url(#clip7_1_7575)">
<path d="M20.4959 73.9899H3.50378C2.77217 73.9899 2.17907 74.583 2.17907 75.3146V92.6753C2.17907 93.4069 2.77217 94 3.50378 94H20.4959C21.2276 94 21.8206 93.4069 21.8206 92.6753V75.3146C21.8206 74.583 21.2276 73.9899 20.4959 73.9899Z" stroke="#BDC0D2" stroke-width="1.5" stroke-linecap="square" stroke-linejoin="bevel"/>
<path d="M4.98768 86.5001C4.98768 86.5001 11.3622 83.7012 13.7128 90.1355" stroke="#BDC0D2" stroke-width="1.5" stroke-linecap="square" stroke-linejoin="bevel"/>
<path d="M19.0119 88.6812C19.0119 88.6812 16.3326 85.5338 13.1752 88.3724" stroke="#BDC0D2" stroke-width="1.5" stroke-linecap="square" stroke-linejoin="bevel"/>
<path d="M15.3565 82.8545C16.5612 82.8545 17.5378 81.8779 17.5378 80.6732C17.5378 79.4685 16.5612 78.4919 15.3565 78.4919C14.1518 78.4919 13.1752 79.4685 13.1752 80.6732C13.1752 81.8779 14.1518 82.8545 15.3565 82.8545Z" stroke="#BDC0D2" stroke-width="1.5" stroke-linecap="square" stroke-linejoin="bevel"/>
<path opacity="0.1" d="M8.01563 74.0397H2.03949V93.9601H8.01563V74.0397Z" fill="#BDC0D2"/>
</g>
<g clip-path="url(#clip8_1_7575)">
<path d="M44.53 73.95H27.47C26.7355 73.95 26.14 74.5454 26.14 75.28V92.71C26.14 93.4445 26.7355 94.04 27.47 94.04H44.53C45.2645 94.04 45.86 93.4445 45.86 92.71V75.28C45.86 74.5454 45.2645 73.95 44.53 73.95Z" fill="#4252E2" stroke="#4252E2" stroke-miterlimit="10"/>
<path d="M28.96 86.4999C28.96 86.4999 35.36 83.6899 37.72 90.1499" stroke="white" stroke-width="1.5" stroke-linecap="square" stroke-linejoin="bevel"/>
<path d="M43.04 88.7C43.04 88.7 40.35 85.54 37.18 88.39" stroke="white" stroke-width="1.5" stroke-linecap="square" stroke-linejoin="bevel"/>
<path d="M39.37 82.85C40.5795 82.85 41.56 81.8695 41.56 80.66C41.56 79.4505 40.5795 78.47 39.37 78.47C38.1605 78.47 37.18 79.4505 37.18 80.66C37.18 81.8695 38.1605 82.85 39.37 82.85Z" stroke="white" stroke-width="1.5" stroke-linecap="square" stroke-linejoin="bevel"/>
<path opacity="0.1" d="M27.45 73.95H31.29V94.04H27.4C26.71 94.04 26.14 93.48 26.14 92.78V75.26C26.14 74.54 26.72 73.95 27.45 73.95Z" fill="#111111"/>
</g>
<g clip-path="url(#clip9_1_7575)">
<path d="M19.5901 98.5513H4.4001C3.40599 98.5513 2.6001 99.3572 2.6001 100.351V115.541C2.6001 116.535 3.40599 117.341 4.4001 117.341H19.5901C20.5842 117.341 21.3901 116.535 21.3901 115.541V100.351C21.3901 99.3572 20.5842 98.5513 19.5901 98.5513Z" stroke="#BDC0D2" stroke-width="1.5" stroke-linecap="square" stroke-linejoin="bevel"/>
<path d="M8.43039 97.3512V101.111" stroke="#BDC0D2" stroke-width="1.5" stroke-linecap="square" stroke-linejoin="bevel"/>
<path d="M15.2604 97.3512V101.111" stroke="#BDC0D2" stroke-width="1.5" stroke-linecap="square" stroke-linejoin="bevel"/>
<path d="M3.81006 104.281H20.4401" stroke="#BDC0D2" stroke-width="1.5" stroke-linecap="square" stroke-linejoin="bevel"/>
<path d="M9.18018 108.721L11.4502 112.291C11.7302 112.741 12.3802 112.741 12.6702 112.291L15.0302 108.641" stroke="#BDC0D2" stroke-width="1.5" stroke-linecap="square" stroke-linejoin="bevel"/>
<path opacity="0.1" d="M8.18002 98.7113H3.52002V117.031H8.18002V98.7113Z" fill="#BDC0D2"/>
</g>
<path d="M43.595 99.205H28.405C27.4109 99.205 26.605 100.011 26.605 101.005V116.195C26.605 117.189 27.4109 117.995 28.405 117.995H43.595C44.5891 117.995 45.395 117.189 45.395 116.195V101.005C45.395 100.011 44.5891 99.205 43.595 99.205Z" fill="#4252E2" stroke="#4252E2" stroke-miterlimit="10"/>
<path d="M32.4351 98.005V101.765" stroke="white" stroke-miterlimit="10"/>
<path d="M39.2652 98.005V101.765" stroke="white" stroke-miterlimit="10"/>
<path d="M27.815 104.945H44.445" stroke="white" stroke-miterlimit="10"/>
<path d="M33.1851 109.375L35.4551 112.945C35.7351 113.395 36.3851 113.395 36.6751 112.945L39.0351 109.295" stroke="white" stroke-width="1.5" stroke-linecap="square" stroke-linejoin="bevel"/>
<path opacity="0.1" d="M28.375 99.205H32.175V117.995H28.285C27.355 117.995 26.605 117.245 26.605 116.315V100.975C26.605 99.995 27.395 99.205 28.375 99.205Z" fill="#111111"/>
<g clip-path="url(#clip10_1_7575)">
<rect x="8.03571" y="121.75" width="7.92857" height="8.97619" rx="3.96429" stroke="#BDC0D2" stroke-width="1.5"/>
<path d="M8.85742 133.274H15.1426C19.0677 133.274 22.25 136.456 22.25 140.381C22.2498 141.413 21.413 142.25 20.3809 142.25H3.61914C2.58699 142.25 1.75015 141.413 1.75 140.381C1.75 136.456 4.93225 133.274 8.85742 133.274Z" stroke="#BDC0D2" stroke-width="1.5"/>
</g>
<g clip-path="url(#clip11_1_7575)">
<rect x="32.0357" y="121.75" width="7.92857" height="8.97619" rx="3.96429" fill="#4252E2" stroke="#4252E2" stroke-width="1.5"/>
<path d="M32.8574 133.274H39.1426C43.0677 133.274 46.25 136.456 46.25 140.381C46.2498 141.413 45.413 142.25 44.3809 142.25H27.6191C26.587 142.25 25.7502 141.413 25.75 140.381C25.75 136.456 28.9323 133.274 32.8574 133.274Z" fill="#4252E2" stroke="#4252E2" stroke-width="1.5"/>
</g>
<defs>
<clipPath id="clip0_1_7575">
<rect width="24" height="24" fill="white"/>
</clipPath>
<clipPath id="clip1_1_7575">
<rect width="24" height="24" fill="white" transform="translate(24)"/>
</clipPath>
<clipPath id="clip2_1_7575">
<rect width="24" height="24" fill="white" transform="translate(24)"/>
</clipPath>
<clipPath id="clip3_1_7575">
<rect width="24" height="24" fill="white" transform="translate(0 24)"/>
</clipPath>
<clipPath id="clip4_1_7575">
<rect width="24" height="24" fill="white" transform="translate(24 24)"/>
</clipPath>
<clipPath id="clip5_1_7575">
<rect width="24" height="24" fill="white" transform="translate(0 48)"/>
</clipPath>
<clipPath id="clip6_1_7575">
<rect width="24" height="24" fill="white" transform="translate(24 48)"/>
</clipPath>
<clipPath id="clip7_1_7575">
<rect width="24" height="24" fill="white" transform="translate(0 72)"/>
</clipPath>
<clipPath id="clip8_1_7575">
<rect width="24" height="24" fill="white" transform="translate(24 72)"/>
</clipPath>
<clipPath id="clip9_1_7575">
<rect width="24" height="24" fill="white" transform="translate(0 96)"/>
</clipPath>
<clipPath id="clip10_1_7575">
<rect width="24" height="24" fill="white" transform="translate(0 120)"/>
</clipPath>
<clipPath id="clip11_1_7575">
<rect width="24" height="24" fill="white" transform="translate(24 120)"/>
</clipPath>
</defs>
</svg>
